<svg xmlns="http://www.w3.org/2000/svg" width="750" height="750" viewBox="0 0 240 240" fill="none"><!--[!--><!--]--><!--[!--><!--]--><path fill="#f5ccec" fill-rule="evenodd" d="M135.802 69.07s3.396-12.178 11.471-12.719c8.075-.54 5.299 20.809 5.299 20.809m-2.286 3.568s8.95-12.496 15.957-9.5c7.007 2.998.256 22.566.256 22.566m-5.054 3.399s12.405-7.388 17.266-2.147c4.861 5.24-8.336 19.579-8.336 19.579m-6.192 4.473s10.646-6.384 14.775-1.927c4.129 4.458-7.23 16.792-7.23 16.792m-4.62 3.072s10.928-1.754 12.839 3.256c1.91 5.011-11.627 11.412-11.627 11.412m-6.431 8.555s11.198-5.647 14.479-1.44c3.282 4.207-4.102 12.984-4.102 12.984" clip-rule="evenodd"></path><path fill="#f5ccec" fill-rule="evenodd" d="M173.198 169.198s11.198-5.647 14.48-1.44c3.282 4.208-4.102 12.984-4.102 12.984" clip-rule="evenodd"></path><path fill="#121212" d="M135.802 69.07s3.396-12.178 11.471-12.719c8.075-.54 5.299 20.809 5.299 20.809m-2.286 3.568s8.95-12.496 15.957-9.5c7.007 2.998.256 22.566.256 22.566m-5.054 3.399s12.405-7.388 17.266-2.147c4.861 5.24-8.336 19.579-8.336 19.579m-6.192 4.473s10.646-6.384 14.775-1.927c4.129 4.458-7.23 16.792-7.23 16.792m-4.62 3.072s10.928-1.754 12.839 3.256c1.91 5.011-11.627 11.412-11.627 11.412m-6.431 8.555s11.198-5.647 14.479-1.44c3.282 4.207-4.102 12.984-4.102 12.984" opacity="0.25"></path><path fill="#121212" d="M173.198 169.198s11.198-5.647 14.48-1.44c3.282 4.208-4.102 12.984-4.102 12.984" opacity="0.25"></path><path fill="#f5ccec" fill-rule="evenodd" d="M161.147 150.228s11.581 17.934 30.948 25.393c4.373 1.684 3.425 7.18-3.727 7.18H144.57l16.577-32.573Z" clip-rule="evenodd"></path><path fill="#121212" d="M161.147 150.228s11.581 17.934 30.948 25.393c4.373 1.684 3.425 7.18-3.727 7.18H144.57l16.577-32.573Z" opacity="0.1"></path><path fill="#f5ccec" fill-rule="evenodd" d="M120.14 186.71c61.968 0 50.259-58.48 50.259-74.693 0-28.516-22.502-46.48-50.259-46.48-27.758 0-50.26 17.963-50.26 46.48 0 15.489-11.708 74.693 50.26 74.693Z" clip-rule="evenodd"></path><path fill="#000" fill-rule="evenodd" d="M102.876 99.414a5.212 5.212 0 1 0 0-10.424 5.212 5.212 0 0 0 0 10.424Zm35.179 0a5.212 5.212 0 1 0 0-10.424 5.212 5.212 0 0 0 0 10.424Z" clip-rule="evenodd"></path><path fill="#ECDBCA" fill-rule="evenodd" d="M120.577 158.384c38.548 0 38.548-7.954 38.548-26.593 0-18.64-8.107-25.071-38.548-25.071-30.44 0-38.548 6.431-38.548 25.071 0 18.639 0 26.593 38.548 26.593Z" clip-rule="evenodd"></path><mask id="HumanDinosaur_svg__a" width="78" height="53" x="82" y="106" maskUnits="userSpaceOnUse" style="mask-type: luminance"><path fill="#fff" fill-rule="evenodd" d="M120.577 158.384c38.548 0 38.548-7.954 38.548-26.593 0-18.64-8.107-25.071-38.548-25.071-30.44 0-38.548 6.431-38.548 25.071 0 18.639 0 26.593 38.548 26.593Z" clip-rule="evenodd"></path></mask><g fill="#fff" fill-rule="evenodd" clip-rule="evenodd" mask="url(#HumanDinosaur_svg__a)"><path d="M92.082 161.887s4.326-12.205 7.802-12.205 7.802 12.205 7.802 12.205H92.082Zm15.093 1.625s4.326-12.204 7.802-12.204 7.802 12.204 7.802 12.204h-15.604Z"></path><path d="M120.228 163.512s4.326-12.204 7.803-12.204c3.476 0 7.802 12.204 7.802 12.204h-15.605Z"></path><path d="M134.913 161.887s4.326-12.205 7.802-12.205c3.477 0 7.803 12.205 7.803 12.205h-15.605Zm-42.831-55.718s4.326 12.204 7.802 12.204 7.802-12.204 7.802-12.204H92.082Z"></path><path d="M107.175 104.949s4.326 12.204 7.802 12.204 7.802-12.204 7.802-12.204h-15.604Z"></path><path d="M120.228 104.949s4.326 12.204 7.803 12.204c3.476 0 7.802-12.204 7.802-12.204h-15.605Z"></path><path d="M134.913 106.169s4.326 12.204 7.802 12.204c3.477 0 7.803-12.204 7.803-12.204h-15.605Z"></path></g><g id="kawaii-face" transform="translate(97.66 123.76) scale(0.7104545454545454)" aria-label="Kawaii face with blissful mood"><defs><path d="M1.45656876,3.14684877 C1.45656876,3.14684877 1.45656876,3.14684877 1.45656876,3.14684877 L0,3.14685315 C0,2.31818182 0.346033696,1.50734266 0.949429952,0.922027972 C1.55390756,0.335664336 2.38979521,0 3.2440659,0 L25.9525272,0 C26.8067979,0 27.6416041,0.335664336 28.2460818,0.922027972 C28.8505594,1.50734266 29.1965931,2.31818182 29.1965931,3.14685315 C29.1890236,5.85734266 28.240675,8.44825175 26.7127199,10.6814685 C25.1771954,12.9104895 23.0317865,14.8122378 20.4040931,16.0227273 C18.6544603,16.8251748 16.6809868,17.3087413 14.5982965,17.3076923 C11.4666916,17.3076923 8.61299495,16.2241259 6.33025392,14.5951049 C4.0399434,12.9587413 2.264358,10.779021 1.16245695,8.33811189 C0.431460764,6.70909091 0.0010813553,4.95314685 0,3.14685315 L1.45656896,3.14685315 Z" id="kawaii-face__path-1"></path></defs><g id="kawaii-face__mouth" transform="translate(18.000000, 16.000000)"><!--[--><g id="kawaii-face__mouth__joy" transform="translate(0.000000, 1.000000)"><mask id="kawaii-face__mask-2-0c115f87-bcfa-406f-9e2a-cb71e3f1d62c" fill="white"><use href="#kawaii-face__path-1"></use></mask><use id="Combined-Shape" fill="#000000" href="#kawaii-face__path-1"></use><path d="M9.59865983,9.95467851 C9.59865983,9.95467851 9.59865983,9.95467851 9.59865983,9.95467851 L9,9.95467851 C9,9.66740582 9.14222222,9.38631493 9.39022222,9.18340586 C9.63866667,8.98013316 10.3333333,8 15,8 C19.6666667,8 20.3608889,8.98013316 20.6093333,9.18340586 C20.8577778,9.38631493 21,9.66740582 21,9.95467851 C20.9968889,10.8943148 20.6071111,11.7924965 19.9791111,12.5666783 C19.348,13.3394055 18.4662222,13.9986781 17.3862222,14.4183144 C16.6671111,14.6964962 15.856,14.8641326 15,14.8637689 C13.7128889,14.8637689 12.54,14.4881326 11.6017778,13.9234054 C10.6604444,13.3561327 9.93066667,12.6004964 9.47777778,11.7543147 C9.17733333,11.1895875 9.00044444,10.5808603 9,9.95467851 L9.59865983,9.95467851 Z" id="kawaii-face__tongue" fill="#E74144" mask="url(#kawaii-face__mask-2-0c115f87-bcfa-406f-9e2a-cb71e3f1d62c)" transform="translate(15.000000, 11.431885) scale(1, -1) translate(-15.000000, -11.431885)"></path></g><!--]--><!--[!--><!--]--><!--[!--><!--]--><!--[!--><!--]--></g><g id="kawaii-face__blush" transform="translate(0.000000, 15.000000)" fill="#000000" opacity="0.2"><circle cx="3" cy="3" r="3"></circle><circle cx="63" cy="3" r="3"></circle></g><g id="kawaii-face__eyes" transform="translate(2.000000, 0.000000)" fill="#000000"><!--[--><g id="kawaii-face__eyes__arc" transform="translate(1.000000, 0.000000)"><path d="M11.3298651,9.72876106 C9.83321993,9.72876106 8.62018766,8.55758439 8.62018766,7.11258087 C8.62018766,6.27104292 7.91115541,5.58647579 7.03954249,5.58647579 C6.16883282,5.58647579 5.45889734,6.27104292 5.45889734,7.11258087 C5.45889734,8.55758439 4.2467683,9.72876106 2.74921991,9.72876106 C1.25257476,9.72876106 0.0395424927,8.55758439 0.0395424927,7.11258087 C0.0395424927,3.38626826 3.18005862,0.354115435 7.03954249,0.354115435 C10.8999296,0.354115435 14.0395425,3.38626826 14.0395425,7.11258087 C14.0395425,8.55758439 12.8274135,9.72876106 11.3298651,9.72876106"></path><path d="M57.3298651,9.72876106 C55.8332199,9.72876106 54.6201877,8.55758439 54.6201877,7.11258087 C54.6201877,6.27104292 53.9111554,5.58647579 53.0395425,5.58647579 C52.1688328,5.58647579 51.4588973,6.27104292 51.4588973,7.11258087 C51.4588973,8.55758439 50.2467683,9.72876106 48.7492199,9.72876106 C47.2525748,9.72876106 46.0395425,8.55758439 46.0395425,7.11258087 C46.0395425,3.38626826 49.1800586,0.354115435 53.0395425,0.354115435 C56.8999296,0.354115435 60.0395425,3.38626826 60.0395425,7.11258087 C60.0395425,8.55758439 58.8274135,9.72876106 57.3298651,9.72876106"></path></g><!--]--><!--[!--><!--]--><!--[!--><!--]--><!--[!--><!--]--></g></g><!----></svg>